<svg width="20" height="14" viewBox="0 0 20 14" fill="none" xmlns="http://www.w3.org/2000/svg">
<path d="M4.35742 9.69287C2.02393 9.69287 0.369385 8.04492 0.369385 5.69824C0.369385 3.35156 2.02393 1.70361 4.35742 1.70361H10.3164C12.6433 1.70361 14.3044 3.35156 14.3044 5.69824C14.3044 8.04492 12.6433 9.69287 10.3164 9.69287H8.37842C8.04883 9.3501 8.02246 8.60522 8.27295 8.32837H10.2439C11.7798 8.32837 12.8674 7.24731 12.8674 5.69824C12.8674 4.15576 11.7798 3.06812 10.2439 3.06812H4.42993C2.89404 3.06812 1.8064 4.15576 1.8064 5.69824C1.8064 7.24731 2.89404 8.32837 4.42993 8.32837H4.7793C4.7002 8.73706 4.73315 9.23145 4.79248 9.69287H4.35742ZM9.68359 12.8438C7.3501 12.8438 5.69556 11.1958 5.69556 8.84912C5.69556 6.50244 7.3501 4.85449 9.68359 4.85449H11.615C11.9248 5.19727 11.9512 5.91577 11.7271 6.21899H9.7561C8.22021 6.21899 7.13257 7.30005 7.13257 8.84912C7.13257 10.3916 8.22021 11.4792 9.7561 11.4792H15.5701C17.106 11.4792 18.1936 10.3916 18.1936 8.84912C18.1936 7.30005 17.106 6.21899 15.5701 6.21899H15.2207C15.2998 5.80371 15.2734 5.31592 15.2075 4.85449H15.6426C17.9761 4.85449 19.6306 6.50244 19.6306 8.84912C19.6306 11.1958 17.9761 12.8438 15.6426 12.8438H9.68359Z" fill="black"/>
</svg>
