<svg width="14" height="14" viewBox="0 0 14 14" fill="none" xmlns="http://www.w3.org/2000/svg">
<path d="M2.00071 7.55451C1.76986 7.55045 1.57749 7.49964 1.42359 7.40208C1.27374 7.30046 1.16237 7.17241 1.08947 7.01794C1.01657 6.85941 0.988218 6.69275 1.00442 6.51796C1.02062 6.3391 1.08137 6.17447 1.18667 6.02407C1.29197 5.86961 1.44789 5.74563 1.65444 5.65213L11.3743 1.15837C11.6538 1.03235 11.911 0.981543 12.1459 1.00593C12.3808 1.02626 12.5731 1.10959 12.723 1.25592C12.8728 1.3982 12.9619 1.58518 12.9903 1.81688C13.0227 2.04452 12.9741 2.30061 12.8445 2.58515L8.3794 12.3044C8.2822 12.5239 8.15463 12.6885 7.99668 12.7983C7.83873 12.9121 7.67066 12.9771 7.49246 12.9934C7.31426 13.0137 7.14619 12.9873 6.98824 12.9141C6.83029 12.8409 6.70271 12.7271 6.60552 12.5727C6.50832 12.4223 6.45972 12.2353 6.45972 12.0117L6.44757 7.66427C6.44757 7.59923 6.41517 7.56671 6.35037 7.56671L2.00071 7.55451Z" fill="black"/>
</svg>
