<svg width="25" height="25" viewBox="0 0 25 25" fill="none" xmlns="http://www.w3.org/2000/svg">
<path d="M10.1348 20.84V17.7823C10.1348 17.0017 10.7722 16.369 11.5584 16.369H14.4326C14.8102 16.369 15.1723 16.5179 15.4393 16.7829C15.7063 17.048 15.8563 17.4075 15.8563 17.7823V20.84C15.8539 21.1645 15.9821 21.4766 16.2124 21.7069C16.4427 21.9372 16.7561 22.0667 17.0829 22.0667H19.0438C19.9596 22.069 20.8388 21.7095 21.4872 21.0675C22.1356 20.4255 22.5 19.5537 22.5 18.6445V9.93354C22.5 9.19914 22.1721 8.50252 21.6046 8.03135L14.934 2.74255C13.7737 1.81524 12.1111 1.84518 10.9854 2.81366L4.46701 8.03135C3.87274 8.48863 3.51755 9.18732 3.5 9.93354V18.6356C3.5 20.5305 5.04738 22.0667 6.95617 22.0667H8.87229C9.55123 22.0667 10.103 21.5229 10.1079 20.8489L10.1348 20.84Z" fill="#8C8994"/>
</svg>
