<svg width="24" height="25" viewBox="0 0 24 25" fill="none" xmlns="http://www.w3.org/2000/svg">
<path d="M6.57517 12.3967L2.95169 10.9474C2.60805 10.8099 2.60805 10.3235 2.95169 10.186L11.2572 6.86379C11.734 6.67306 12.266 6.67306 12.7428 6.86379L21.0483 10.186C21.392 10.3235 21.392 10.8099 21.0483 10.9474L17.4248 12.3967" stroke="#FFC727" stroke-linecap="round" stroke-linejoin="round"/>
<path d="M14 13.5667C14 13.8428 14.2239 14.0667 14.5 14.0667C14.7761 14.0667 15 13.8428 15 13.5667H14ZM14 7.56668V13.5667H15V7.56668H14Z" fill="#FFC727"/>
<path d="M6.5 12.5667V16.5667L12 18.5667L17.5 16.5667V12.5667C17.5 12.5667 17 10.5667 12 10.5667C7 10.5667 6.5 12.5667 6.5 12.5667Z" stroke="#FFC727" stroke-linecap="round" stroke-linejoin="round"/>
</svg>
