<svg width="22" height="24" viewBox="0 0 22 24" fill="none" xmlns="http://www.w3.org/2000/svg">
<g clip-path="url(#clip0_37_74)">
<path d="M9.74655 2C14.1159 2 17.6621 6.032 17.6621 11C17.6621 15.968 14.1159 20 9.74655 20C5.37718 20 1.83102 15.968 1.83102 11C1.83102 6.032 5.37718 2 9.74655 2ZM9.74655 18C13.1476 18 15.9031 14.867 15.9031 11C15.9031 7.132 13.1476 4 9.74655 4C6.34463 4 3.59003 7.132 3.59003 11C3.59003 14.867 6.34463 18 9.74655 18ZM17.2091 18.071L19.6972 20.899L18.4528 22.314L15.9655 19.485L17.2091 18.071Z" fill="#D9D9D9"/>
</g>
<defs>
<clipPath id="clip0_37_74">
<rect width="21.1081" height="24" fill="white" transform="translate(0.0720215)"/>
</clipPath>
</defs>
</svg>
