<svg width="13" height="11" viewBox="0 0 13 11" fill="none" xmlns="http://www.w3.org/2000/svg">
<path fill-rule="evenodd" clip-rule="evenodd" d="M3.14684 0.916687H9.85319C10.9928 0.916687 11.9167 1.69841 11.9167 2.66272V8.33732C11.9167 9.30163 10.9928 10.0834 9.85319 10.0834H3.14684C2.0072 10.0834 1.08334 9.30163 1.08334 8.33732V2.66272C1.08334 1.69841 2.0072 0.916687 3.14684 0.916687ZM9.33731 6.04566C9.55099 6.04566 9.72422 5.89908 9.72422 5.71827V4.39129C9.72144 4.21147 9.54983 4.06626 9.33731 4.06391H7.78969C7.57601 4.06391 7.40279 4.21048 7.40279 4.39129C7.40279 4.5721 7.57601 4.71867 7.78969 4.71867H8.24882L6.41231 6.27264L5.38057 5.39962C5.10678 5.16876 4.66388 5.16876 4.39009 5.39962L3.0643 6.52145C2.91343 6.64927 2.91343 6.85633 3.0643 6.98415C3.13646 7.04597 3.23502 7.08059 3.33771 7.08018C3.44052 7.08109 3.5393 7.0464 3.61112 6.98415L4.90596 5.93653L5.93771 6.80954C6.2115 7.04041 6.6544 7.04041 6.92819 6.80954L8.95041 5.08534V5.71827C8.95041 5.89908 9.12363 6.04566 9.33731 6.04566Z" fill="#3470A2"/>
</svg>
