<svg width="27" height="14" viewBox="0 0 27 14" fill="none" xmlns="http://www.w3.org/2000/svg">
<g opacity="0.3">
<path d="M0.665982 1.77772C0 2.78661 0 4.19108 0 7C0 9.80892 0 11.2134 0.665982 12.2223C0.954292 12.659 1.32477 13.034 1.75625 13.3259C2.75297 14 4.14047 14 6.91548 14H17.7827C20.5577 14 21.9452 14 22.9419 13.3259C23.3734 13.034 23.7438 12.659 24.0322 12.2223C24.6981 11.2134 24.6981 9.80892 24.6981 7C24.6981 4.19108 24.6981 2.78661 24.0322 1.77772C23.7438 1.34096 23.3734 0.965956 22.9419 0.674122C21.9452 0 20.5577 0 17.7827 0H6.91548C4.14047 0 2.75297 0 1.75625 0.674122C1.32477 0.965956 0.954292 1.34096 0.665982 1.77772Z" fill="black"/>
<path d="M27 6.75C27 7.62313 26.4822 8.41122 25.6861 8.75V4.75C26.4822 5.08878 27 5.87687 27 6.75Z" fill="black"/>
</g>
</svg>
