<svg width="32" height="30" viewBox="0 0 32 30" fill="none" xmlns="http://www.w3.org/2000/svg">
<path fill-rule="evenodd" clip-rule="evenodd" d="M19.2495 4.48911C18.2629 4.01444 17.1594 3.75 16 3.75C12.1976 3.75 8.99623 6.59433 8.5487 10.3703L8.27379 12.6899C8.21649 13.1734 8.18784 13.4151 8.14519 13.652C7.98842 14.5228 7.68829 15.3615 7.25701 16.1341C7.13968 16.3442 7.00847 16.5493 6.74603 16.9593L5.96999 18.1719C5.10033 19.5307 4.6655 20.2102 4.95004 20.7301C5.23458 21.25 6.04123 21.25 7.65453 21.25H24.3455C25.9588 21.25 26.7654 21.25 27.05 20.7301C27.3345 20.2102 26.8997 19.5307 26.03 18.1719L25.254 16.9593L25.2539 16.9592C24.9915 16.5492 24.8603 16.3442 24.743 16.1341C24.3117 15.3615 24.0116 14.5228 23.8548 13.652C23.8222 13.471 23.7978 13.2873 23.7626 12.9951C20.911 12.8763 18.3333 10.6303 18.3333 7.5C18.3333 6.35874 18.676 5.33504 19.2495 4.48911ZM21.6506 6.31625C22.5255 7.31656 23.1413 8.55526 23.3866 9.93354C22.2095 9.67378 21.3333 8.68282 21.3333 7.5C21.3333 7.07173 21.4482 6.66861 21.6506 6.31625Z" fill="#FFC727"/>
<path d="M12.1363 22.0809C12.3642 23.2769 12.8664 24.3338 13.565 25.0876C14.2635 25.8414 15.1195 26.25 16 26.25C16.8805 26.25 17.7365 25.8414 18.435 25.0876C19.1336 24.3338 19.6358 23.2769 19.8637 22.0809" stroke="#FFC727" stroke-width="2" stroke-linecap="round"/>
<path d="M24 10.5C25.718 10.5 27.1667 9.18676 27.1667 7.5C27.1667 5.81324 25.718 4.5 24 4.5C22.282 4.5 20.8333 5.81324 20.8333 7.5C20.8333 9.18676 22.282 10.5 24 10.5Z" fill="#82B3FD" stroke="#82B3FD"/>
</svg>
