<svg width="19" height="14" viewBox="0 0 19 14" fill="none" xmlns="http://www.w3.org/2000/svg">
<path d="M1.16667 9H2.33333C2.97767 9 3.5 9.50368 3.5 10.125V12.375C3.5 12.9963 2.97767 13.5 2.33333 13.5H1.16667C0.522334 13.5 0 12.9963 0 12.375V10.125C0 9.50368 0.522334 9 1.16667 9Z" fill="black"/>
<path d="M6.16667 7H7.33333C7.97767 7 8.5 7.50368 8.5 8.125V12.375C8.5 12.9963 7.97767 13.5 7.33333 13.5H6.16667C5.52233 13.5 5 12.9963 5 12.375V8.125C5 7.50368 5.52233 7 6.16667 7Z" fill="black"/>
<path opacity="0.2" d="M11.1667 4H12.3333C12.9777 4 13.5 4.50368 13.5 5.125V12.375C13.5 12.9963 12.9777 13.5 12.3333 13.5H11.1667C10.5223 13.5 10 12.9963 10 12.375V5.125C10 4.50368 10.5223 4 11.1667 4Z" fill="black"/>
<path opacity="0.2" d="M16.1667 1H17.3333C17.9777 1 18.5 1.50368 18.5 2.125V12.375C18.5 12.9963 17.9777 13.5 17.3333 13.5H16.1667C15.5223 13.5 15 12.9963 15 12.375V2.125C15 1.50368 15.5223 1 16.1667 1Z" fill="black"/>
</svg>
